<svg xmlns="http://www.w3.org/2000/svg" xmlns:xlink="http://www.w3.org/1999/xlink" width="164" zoomAndPan="magnify" viewBox="0 0 123 77.999999" height="104" preserveAspectRatio="xMidYMid meet" version="1.0"><defs><g/></defs><path stroke-linecap="butt" transform="matrix(0.181206, 0, 0, 0.181206, 13.184472, 13.183087)" fill="none" stroke-linejoin="miter" d="M 16.012017 105.007011 L 16.012017 16.687926 L 60.591921 16.687926 L 87.689087 61.504957 L 88.659153 63.50976 L 88.766938 63.50976 L 89.69389 61.504957 L 116.683271 16.687926 L 161.37096 16.687926 L 161.37096 105.007011 L 125.478533 105.007011 L 125.478533 56.740857 L 125.607875 54.714498 L 124.896493 56.395945 L 102.434085 93.474009 L 74.992006 93.474009 L 52.486484 56.395945 L 51.79666 54.714498 L 51.904445 56.740857 L 51.904445 105.007011 Z M 159.969754 105.007011 L 197.866985 16.687926 L 257.536799 16.687926 L 296.296309 105.007011 L 251.349936 105.007011 L 246.478051 90.606926 L 209.637114 90.606926 L 204.765229 105.007011 Z M 217.009613 68.985241 L 239.127109 68.985241 L 229.124655 39.495246 L 228.305488 36.304808 L 227.809677 36.304808 L 226.99051 39.495246 Z M 320.397051 105.007011 L 320.397051 42.103645 L 287.371706 42.103645 L 287.371706 16.687926 L 395.070546 16.687926 L 395.070546 42.103645 L 362.131429 42.103645 L 362.131429 105.007011 Z M 472.912923 105.007011 L 472.912923 71.830767 L 435.705517 71.830767 L 435.705517 105.007011 L 393.863353 105.007011 L 393.863353 16.687926 L 435.705517 16.687926 L 435.705517 46.867745 L 472.912923 46.867745 L 472.912923 16.687926 L 514.625744 16.687926 L 514.625744 105.007011 Z M 472.912923 105.007011 " stroke="#1e5175" stroke-width="31.20495" stroke-opacity="1" stroke-miterlimit="4"/><g fill="#fe95f6" fill-opacity="1"><g transform="translate(14.535019, 32.209667)"><g><path d="M 1.546875 0 L 1.546875 -16.015625 L 9.625 -16.015625 L 14.546875 -7.890625 L 14.71875 -7.515625 L 14.734375 -7.515625 L 14.90625 -7.890625 L 19.796875 -16.015625 L 27.90625 -16.015625 L 27.90625 0 L 21.390625 0 L 21.390625 -8.75 L 21.421875 -9.109375 L 21.28125 -8.8125 L 17.21875 -2.09375 L 12.234375 -2.09375 L 8.171875 -8.8125 L 8.03125 -9.109375 L 8.0625 -8.75 L 8.0625 0 Z M 1.546875 0 "/></g></g></g><g fill="#fe95f6" fill-opacity="1"><g transform="translate(42.038723, 32.209667)"><g><path d="M 0.125 0 L 7 -16.015625 L 17.8125 -16.015625 L 24.84375 0 L 16.703125 0 L 15.8125 -2.609375 L 9.140625 -2.609375 L 8.25 0 Z M 10.46875 -6.53125 L 14.484375 -6.53125 L 12.671875 -11.875 L 12.515625 -12.453125 L 12.4375 -12.453125 L 12.28125 -11.875 Z M 10.46875 -6.53125 "/></g></g></g><g fill="#fe95f6" fill-opacity="1"><g transform="translate(65.084072, 32.209667)"><g><path d="M 6.15625 0 L 6.15625 -11.390625 L 0.171875 -11.390625 L 0.171875 -16.015625 L 19.6875 -16.015625 L 19.6875 -11.390625 L 13.71875 -11.390625 L 13.71875 0 Z M 6.15625 0 "/></g></g></g><g fill="#fe95f6" fill-opacity="1"><g transform="translate(83.003384, 32.209667)"><g><path d="M 15.875 0 L 15.875 -6.015625 L 9.140625 -6.015625 L 9.140625 0 L 1.546875 0 L 1.546875 -16.015625 L 9.140625 -16.015625 L 9.140625 -10.53125 L 15.875 -10.53125 L 15.875 -16.015625 L 23.4375 -16.015625 L 23.4375 0 Z M 15.875 0 "/></g></g></g><path stroke-linecap="butt" transform="matrix(0.181206, 0, 0, 0.181206, 12.909828, 33.504712)" fill="none" stroke-linejoin="miter" d="M 54.842854 135.007129 L 54.842854 21.660351 L 108.541375 21.660351 L 108.541375 102.822508 L 170.927373 102.822508 L 170.927373 135.007129 Z M 162.088997 135.007129 L 210.743177 21.660351 L 287.31369 21.660351 L 337.067278 135.007129 L 279.380709 135.007129 L 273.129175 116.532769 L 225.854644 116.532769 L 219.60311 135.007129 Z M 235.318173 88.788892 L 263.70876 88.788892 L 250.839223 50.934776 L 249.804486 46.838943 L 249.179333 46.838943 L 248.123039 50.934776 Z M 335.385831 135.007129 L 335.385831 21.660351 L 431.163643 21.660351 C 441.058312 21.660351 449.65956 22.479518 457.010502 24.117851 C 464.383001 25.734627 470.117166 28.493925 474.191442 32.35263 C 478.265718 36.211335 480.292077 41.471247 480.292077 48.175478 C 480.292077 55.203065 477.963919 61.023458 473.329162 65.615102 C 468.715961 70.185189 461.42969 73.073829 451.47035 74.302579 L 451.47035 74.58282 C 462.033286 75.81157 470.418965 78.91578 476.562714 83.89545 C 482.728019 88.896677 485.810672 95.406895 485.810672 103.426104 C 485.810672 109.828537 484.301681 115.088449 481.305257 119.205838 C 478.287275 123.323228 474.212999 126.535223 469.08243 128.820266 C 463.951861 131.10531 458.088353 132.700529 451.535021 133.62748 C 444.981688 134.532875 438.148115 135.007129 431.012744 135.007129 Z M 387.704703 105.236893 L 419.587526 105.236893 C 424.157613 105.236893 427.563621 104.568626 429.783994 103.188977 C 432.025923 101.830885 433.146888 99.524285 433.146888 96.269176 C 433.146888 90.556567 428.253446 87.711041 418.509676 87.711041 L 387.704703 87.711041 Z M 387.704703 66.951637 L 419.134829 66.951637 C 427.585178 66.951637 431.810353 64.451023 431.810353 59.471353 C 431.810353 54.0821 427.930091 51.387473 420.191123 51.387473 L 387.704703 51.387473 Z M 387.704703 66.951637 " stroke="#1e5175" stroke-width="36.232288" stroke-opacity="1" stroke-miterlimit="4"/><g fill="#91c4f6" fill-opacity="1"><g transform="translate(20.857389, 57.967458)"><g><path d="M 1.984375 0 L 1.984375 -20.53125 L 11.71875 -20.53125 L 11.71875 -5.828125 L 23.03125 -5.828125 L 23.03125 0 Z M 1.984375 0 "/></g></g></g><g fill="#91c4f6" fill-opacity="1"><g transform="translate(42.11418, 57.967458)"><g><path d="M 0.171875 0 L 8.984375 -20.53125 L 22.859375 -20.53125 L 31.875 0 L 21.421875 0 L 20.28125 -3.34375 L 11.71875 -3.34375 L 10.59375 0 Z M 13.4375 -8.375 L 18.578125 -8.375 L 16.25 -15.234375 L 16.0625 -15.96875 L 15.953125 -15.96875 L 15.75 -15.234375 Z M 13.4375 -8.375 "/></g></g></g><g fill="#91c4f6" fill-opacity="1"><g transform="translate(71.691318, 57.967458)"><g><path d="M 1.984375 0 L 1.984375 -20.53125 L 19.34375 -20.53125 C 21.132812 -20.53125 22.695312 -20.382812 24.03125 -20.09375 C 25.363281 -19.800781 26.398438 -19.300781 27.140625 -18.59375 C 27.878906 -17.894531 28.25 -16.941406 28.25 -15.734375 C 28.25 -14.453125 27.828125 -13.394531 26.984375 -12.5625 C 26.148438 -11.738281 24.832031 -11.21875 23.03125 -11 L 23.03125 -10.953125 C 24.945312 -10.722656 26.460938 -10.15625 27.578125 -9.25 C 28.691406 -8.351562 29.25 -7.175781 29.25 -5.71875 C 29.25 -4.5625 28.972656 -3.609375 28.421875 -2.859375 C 27.878906 -2.109375 27.144531 -1.523438 26.21875 -1.109375 C 25.289062 -0.703125 24.226562 -0.414062 23.03125 -0.25 C 21.84375 -0.0820312 20.609375 0 19.328125 0 Z M 11.46875 -5.390625 L 17.25 -5.390625 C 18.070312 -5.390625 18.6875 -5.515625 19.09375 -5.765625 C 19.5 -6.015625 19.703125 -6.429688 19.703125 -7.015625 C 19.703125 -8.046875 18.816406 -8.5625 17.046875 -8.5625 L 11.46875 -8.5625 Z M 11.46875 -12.328125 L 17.171875 -12.328125 C 18.691406 -12.328125 19.453125 -12.78125 19.453125 -13.6875 C 19.453125 -14.65625 18.753906 -15.140625 17.359375 -15.140625 L 11.46875 -15.140625 Z M 11.46875 -12.328125 "/></g></g></g></svg>