<svg xmlns="http://www.w3.org/2000/svg" xmlns:xlink="http://www.w3.org/1999/xlink" width="181" zoomAndPan="magnify" viewBox="0 0 135.75 65.249999" height="87" preserveAspectRatio="xMidYMid meet" version="1.0"><defs><g/><clipPath id="300f9ee9f0"><path d="M 5 0 L 131 0 L 131 64.507812 L 5 64.507812 Z M 5 0 " clip-rule="nonzero"/></clipPath></defs><path stroke-linecap="butt" transform="matrix(0.149192, 0, 0, 0.149192, 11.502886, 10.854019)" fill="none" stroke-linejoin="miter" d="M 126.600405 105.002525 L 126.600405 16.688129 L 171.189619 16.688129 L 198.288759 61.486804 L 199.25752 63.502875 L 199.362251 63.502875 L 200.30483 61.486804 L 227.273057 16.688129 L 271.967001 16.688129 L 271.967001 105.002525 L 236.070459 105.002525 L 236.070459 56.747727 L 236.201372 54.705473 L 235.494438 56.381169 L 213.029644 93.482117 L 185.590128 93.482117 L 163.099151 56.381169 L 162.392217 54.705473 L 162.496948 56.747727 L 162.496948 105.002525 Z M 270.553133 105.002525 L 308.465746 16.688129 L 368.110037 16.688129 L 406.886681 105.002525 L 361.93091 105.002525 L 357.060919 90.602015 L 320.247981 90.602015 L 315.351808 105.002525 Z M 327.605332 68.975069 L 349.729751 68.975069 L 339.70176 39.493299 L 338.890095 36.299004 L 338.392623 36.299004 L 337.580958 39.493299 Z M 431.000989 105.002525 L 431.000989 42.111573 L 397.958366 42.111573 L 397.958366 16.688129 L 505.674175 16.688129 L 505.674175 42.111573 L 472.7101 42.111573 L 472.7101 105.002525 Z M 583.515473 105.002525 L 583.515473 71.828988 L 546.309794 71.828988 L 546.309794 105.002525 L 504.469769 105.002525 L 504.469769 16.688129 L 546.309794 16.688129 L 546.309794 46.876833 L 583.515473 46.876833 L 583.515473 16.688129 L 625.224585 16.688129 L 625.224585 105.002525 Z M 583.515473 105.002525 " stroke="#1e5175" stroke-width="31.20495" stroke-opacity="1" stroke-miterlimit="4"/><g fill="#fe95f6" fill-opacity="1"><g transform="translate(29.114509, 26.519155)"><g><path d="M 1.28125 0 L 1.28125 -13.171875 L 7.921875 -13.171875 L 11.96875 -6.484375 L 12.109375 -6.1875 L 12.125 -6.1875 L 12.265625 -6.484375 L 16.296875 -13.171875 L 22.96875 -13.171875 L 22.96875 0 L 17.609375 0 L 17.609375 -7.203125 L 17.625 -7.5 L 17.515625 -7.25 L 14.171875 -1.71875 L 10.078125 -1.71875 L 6.71875 -7.25 L 6.609375 -7.5 L 6.625 -7.203125 L 6.625 0 Z M 1.28125 0 "/></g></g></g><g fill="#fe95f6" fill-opacity="1"><g transform="translate(51.759107, 26.519155)"><g><path d="M 0.109375 0 L 5.765625 -13.171875 L 14.671875 -13.171875 L 20.453125 0 L 13.75 0 L 13.015625 -2.140625 L 7.515625 -2.140625 L 6.796875 0 Z M 8.625 -5.375 L 11.921875 -5.375 L 10.421875 -9.765625 L 10.296875 -10.25 L 10.234375 -10.25 L 10.109375 -9.765625 Z M 8.625 -5.375 "/></g></g></g><g fill="#fe95f6" fill-opacity="1"><g transform="translate(70.733012, 26.519155)"><g><path d="M 5.078125 0 L 5.078125 -9.375 L 0.140625 -9.375 L 0.140625 -13.171875 L 16.203125 -13.171875 L 16.203125 -9.375 L 11.296875 -9.375 L 11.296875 0 Z M 5.078125 0 "/></g></g></g><g fill="#fe95f6" fill-opacity="1"><g transform="translate(85.486502, 26.519155)"><g><path d="M 13.0625 0 L 13.0625 -4.953125 L 7.515625 -4.953125 L 7.515625 0 L 1.28125 0 L 1.28125 -13.171875 L 7.515625 -13.171875 L 7.515625 -8.671875 L 13.0625 -8.671875 L 13.0625 -13.171875 L 19.296875 -13.171875 L 19.296875 0 Z M 13.0625 0 "/></g></g></g><g clip-path="url(#300f9ee9f0)"><path stroke-linecap="butt" transform="matrix(0.149192, 0, 0, 0.149192, 11.276765, 27.585401)" fill="none" stroke-linejoin="miter" d="M 165.452636 135.001822 L 165.452636 21.656723 L 219.153444 21.656723 L 219.153444 102.823229 L 281.546924 102.823229 L 281.546924 135.001822 Z M 272.697156 135.001822 L 321.344695 21.656723 L 397.929221 21.656723 L 447.676435 135.001822 L 389.99585 135.001822 L 383.738174 116.516805 L 336.478321 116.516805 L 330.220645 135.001822 Z M 345.930291 88.789279 L 374.312386 88.789279 L 361.456659 50.929031 L 360.409349 46.844522 L 359.780963 46.844522 L 358.733653 50.929031 Z M 445.974557 135.001822 L 445.974557 21.656723 L 541.777218 21.656723 C 551.648112 21.656723 560.288418 22.49457 567.619586 24.117901 C 575.00312 25.741231 580.710958 28.490419 584.795466 32.365465 C 588.853792 36.214328 590.896046 41.47706 590.896046 48.179842 C 590.896046 55.223001 588.591964 61.009387 583.931436 65.61755 C 579.323273 70.173347 572.04447 73.079632 562.068844 74.284038 L 562.068844 74.598231 C 572.646673 75.802637 581.025151 78.918384 587.178096 83.893105 C 593.331041 88.89401 596.420605 95.38733 596.420605 103.425433 C 596.420605 109.814022 594.902005 115.076754 591.917173 119.213627 C 588.906157 123.324318 584.821649 126.544796 579.689831 128.822694 C 574.558013 131.100593 568.693079 132.69774 562.147393 133.614136 C 555.601707 134.530533 548.76801 135.001822 541.620121 135.001822 Z M 498.313862 105.232042 L 530.204445 105.232042 C 534.760242 105.232042 538.163999 104.55129 540.389532 103.189788 C 542.641248 101.828285 543.740923 99.524204 543.740923 96.277543 C 543.740923 90.543522 538.870933 87.689603 529.104769 87.689603 L 498.313862 87.689603 Z M 498.313862 66.95287 L 529.759338 66.95287 C 538.190182 66.95287 542.405604 64.465509 542.405604 59.464605 C 542.405604 54.07096 538.530557 51.40032 530.780465 51.40032 L 498.313862 51.40032 Z M 498.313862 66.95287 " stroke="#1e5175" stroke-width="36.232288" stroke-opacity="1" stroke-miterlimit="4"/></g><g fill="#91c4f6" fill-opacity="1"><g transform="translate(34.322232, 47.726291)"><g><path d="M 1.640625 0 L 1.640625 -16.921875 L 9.65625 -16.921875 L 9.65625 -4.796875 L 18.96875 -4.796875 L 18.96875 0 Z M 1.640625 0 "/></g></g></g><g fill="#91c4f6" fill-opacity="1"><g transform="translate(51.823566, 47.726291)"><g><path d="M 0.140625 0 L 7.40625 -16.921875 L 18.828125 -16.921875 L 26.25 0 L 17.640625 0 L 16.703125 -2.75 L 9.65625 -2.75 L 8.71875 0 Z M 11.0625 -6.890625 L 15.296875 -6.890625 L 13.390625 -12.546875 L 13.234375 -13.15625 L 13.140625 -13.15625 L 12.96875 -12.546875 Z M 11.0625 -6.890625 "/></g></g></g><g fill="#91c4f6" fill-opacity="1"><g transform="translate(76.175282, 47.726291)"><g><path d="M 1.640625 0 L 1.640625 -16.921875 L 15.9375 -16.921875 C 17.40625 -16.921875 18.6875 -16.796875 19.78125 -16.546875 C 20.882812 -16.304688 21.738281 -15.894531 22.34375 -15.3125 C 22.957031 -14.738281 23.265625 -13.953125 23.265625 -12.953125 C 23.265625 -11.910156 22.914062 -11.046875 22.21875 -10.359375 C 21.53125 -9.671875 20.445312 -9.238281 18.96875 -9.0625 L 18.96875 -9.015625 C 20.539062 -8.828125 21.785156 -8.363281 22.703125 -7.625 C 23.628906 -6.882812 24.09375 -5.914062 24.09375 -4.71875 C 24.09375 -3.757812 23.867188 -2.972656 23.421875 -2.359375 C 22.972656 -1.742188 22.363281 -1.265625 21.59375 -0.921875 C 20.820312 -0.578125 19.945312 -0.335938 18.96875 -0.203125 C 17.988281 -0.0664062 16.96875 0 15.90625 0 Z M 9.453125 -4.4375 L 14.203125 -4.4375 C 14.890625 -4.4375 15.398438 -4.535156 15.734375 -4.734375 C 16.066406 -4.941406 16.234375 -5.289062 16.234375 -5.78125 C 16.234375 -6.632812 15.503906 -7.0625 14.046875 -7.0625 L 9.453125 -7.0625 Z M 9.453125 -10.15625 L 14.140625 -10.15625 C 15.398438 -10.15625 16.03125 -10.523438 16.03125 -11.265625 C 16.03125 -12.066406 15.453125 -12.46875 14.296875 -12.46875 L 9.453125 -12.46875 Z M 9.453125 -10.15625 "/></g></g></g></svg>